<svg xmlns="http://www.w3.org/2000/svg" style="margin:auto;display:block;" width="1024" height="256"
    preserveAspectRatio="xMidYMid">
    <style type="text/css">
        text {
            text-anchor: middle;
            font-size: 32px;
            opacity: 0;
        }
    </style>
    <style id="pulse-id" data-anikit="">
        @keyframes pulse-id {
            0% {
                animation-timing-function: cubic-bezier(0.3333, 0.3333, 0.3124, 0.6668);
                transform: scale(0.85);
            }

            0.5% {
                animation-timing-function: cubic-bezier(0.0233, -0.3865, 0.6667, 0.6667);
                transform: scale(1.141);
            }

            1.5% {
                animation-timing-function: cubic-bezier(0.2893, 0.354, 0.6158, 0.6958);
                transform: scale(1.124);
            }

            11% {
                animation-timing-function: cubic-bezier(0.2861, 0.4196, 0.6215, 0.7476);
                transform: scale(0.992);
            }

            25% {
                animation-timing-function: cubic-bezier(0.0793, 0.2627, 0.9972, 1.5511);
                transform: scale(0.887);
            }

            49.5% {
                animation-timing-function: cubic-bezier(0.6664, 0.3332, 0.6667, 0.6667);
                transform: scale(0.85);
            }

            50% {
                animation-timing-function: cubic-bezier(0, 0.3522, 1, 0.6686);
                transform: scale(1.1500000000000001);
            }

            51% {
                animation-timing-function: cubic-bezier(0.2668, 0.4036, 0.554, 0.7657);
                transform: scale(1.1320000000000001);
            }

            73.5% {
                animation-timing-function: cubic-bezier(0.2997, 1.0028, 0.6671, 1);
                transform: scale(0.894);
            }

            100% {
                transform: scale(0.85);
            }
        }
    </style>
    <g style="transform-origin:512px 128px;transform:scale(1)">
        <g transform="translate(512,128)">
            <g transform="translate(0,0)">
                <g class="path"
                    style="transform: scale(0.85); transform-origin: -352.495px -3.16402px; animation: 1s linear -0.644286s infinite normal forwards running pulse-id;">
                    <path
                        d="M6.08-17.38L6.08 0L2.88 0L2.88-22.41L6.08-22.41L19.55-5.03L19.55-22.41L22.75-22.41L22.75 0L19.55 0L6.08-17.38"
                        fill="#e50914" stroke="none" stroke-width="none"
                        transform="translate(-365.30999755859375,8.040976446242558)" style="fill: rgb(229, 9, 20);">
                    </path>
                </g>
                <g class="path"
                    style="transform: scale(0.85); transform-origin: -330.08px -0.279023px; animation: 1s linear -0.628571s infinite normal forwards running pulse-id;">
                    <path
                        d="M28.19-3.08L28.19-7.27L28.19-7.27Q28.19-7.91 28.43-8.46L28.43-8.46L28.43-8.46Q28.67-9.02 29.09-9.44L29.09-9.44L29.09-9.44Q29.50-9.86 30.06-10.10L30.06-10.10L30.06-10.10Q30.63-10.34 31.25-10.34L31.25-10.34L39.19-10.34L39.19-13.56L29.14-13.56L29.14-16.64L39.19-16.64L39.19-16.64Q39.83-16.64 40.39-16.40L40.39-16.40L40.39-16.40Q40.95-16.16 41.37-15.74L41.37-15.74L41.37-15.74Q41.78-15.33 42.02-14.77L42.02-14.77L42.02-14.77Q42.27-14.20 42.27-13.56L42.27-13.56L42.27 0L39.19 0L39.19-2.81L39.19-2.81Q39.14-2.23 38.88-1.72L38.88-1.72L38.88-1.72Q38.61-1.20 38.20-0.82L38.20-0.82L38.20-0.82Q37.78-0.44 37.25-0.22L37.25-0.22L37.25-0.22Q36.72 0 36.13 0L36.13 0L31.25 0L31.25 0Q30.63 0 30.06-0.24L30.06-0.24L30.06-0.24Q29.50-0.48 29.09-0.90L29.09-0.90L29.09-0.90Q28.67-1.31 28.43-1.88L28.43-1.88L28.43-1.88Q28.19-2.44 28.19-3.08L28.19-3.08zM31.25-7.27L31.25-3.08L39.19-3.08L39.19-7.27L31.25-7.27"
                        fill="#e50914" stroke="none" stroke-width="none"
                        transform="translate(-365.30999755859375,8.040976446242558)" style="fill: rgb(229, 9, 20);">
                    </path>
                </g>
                <g class="path"
                    style="transform: scale(0.85); transform-origin: -316.22px -0.279023px; animation: 1s linear -0.612857s infinite normal forwards running pulse-id;">
                    <path d="M47.55-16.64L50.63-16.64L50.63 0L47.55 0L47.55-16.64" fill="#e50914" stroke="none"
                        stroke-width="none" transform="translate(-365.30999755859375,8.040976446242558)"
                        style="fill: rgb(34, 31, 31);"></path>
                </g>
                <g class="path"
                    style="transform: scale(0.85); transform-origin: -316.225px -13.404px; animation: 1s linear -0.597143s infinite normal forwards running pulse-id;">
                    <path d="M47.39-19.84L47.39-23.05L50.78-23.05L50.78-19.84L47.39-19.84" fill="#e50914" stroke="none"
                        stroke-width="none" transform="translate(-365.30999755859375,8.040976446242558)"
                        style="fill: rgb(34, 31, 31);">
                    </path>
                </g>
                <g class="path"
                    style="transform: scale(0.85); transform-origin: -303.07px -0.279023px; animation: 1s linear -0.581429s infinite normal forwards running pulse-id;">
                    <path d="M63.84 0L60.64 0L53.98-16.64L57.19-16.64L62.23-3.69L67.30-16.64L70.50-16.64L63.84 0"
                        fill="#e50914" stroke="none" stroke-width="none"
                        transform="translate(-365.30999755859375,8.040976446242558)" style="fill: rgb(34, 31, 31);">
                    </path>
                </g>
                <g class="path"
                    style="transform: scale(0.85); transform-origin: -284.57px -0.279023px; animation: 1s linear -0.565714s infinite normal forwards running pulse-id;">
                    <path
                        d="M87.78-13.56L87.78-6.75L76.77-6.75L76.77-3.08L87.78-3.08L87.78 0L76.77 0L76.77 0Q76.14 0 75.58-0.24L75.58-0.24L75.58-0.24Q75.02-0.48 74.60-0.90L74.60-0.90L74.60-0.90Q74.19-1.31 73.95-1.88L73.95-1.88L73.95-1.88Q73.70-2.44 73.70-3.08L73.70-3.08L73.70-13.56L73.70-13.56Q73.70-14.20 73.95-14.77L73.95-14.77L73.95-14.77Q74.19-15.33 74.60-15.74L74.60-15.74L74.60-15.74Q75.02-16.16 75.58-16.40L75.58-16.40L75.58-16.40Q76.14-16.64 76.77-16.64L76.77-16.64L84.70-16.64L84.70-16.64Q85.34-16.64 85.91-16.40L85.91-16.40L85.91-16.40Q86.47-16.16 86.88-15.74L86.88-15.74L86.88-15.74Q87.30-15.33 87.54-14.77L87.54-14.77L87.54-14.77Q87.78-14.20 87.78-13.56L87.78-13.56zM84.70-13.56L76.77-13.56L76.77-9.83L84.70-9.83L84.70-13.56"
                        fill="#e50914" stroke="none" stroke-width="none"
                        transform="translate(-365.30999755859375,8.040976446242558)" style="fill: rgb(34, 31, 31);">
                    </path>
                </g>
                <g class="path"
                    style="transform: scale(0.85); transform-origin: -253.645px -3.16402px; animation: 1s linear -0.55s infinite normal forwards running pulse-id;">
                    <path
                        d="M117.41-11.69L117.41-11.69L117.41-11.69Q118.11-11.47 118.69-11.06L118.69-11.06L118.69-11.06Q119.27-10.66 119.67-10.02L119.67-10.02L119.67-10.02Q120.08-9.39 120.30-8.53L120.30-8.53L120.30-8.53Q120.52-7.67 120.52-6.56L120.52-6.56L120.52-5.44L120.52-5.44Q120.52 0 115.08 0L115.08 0L102.81 0L102.81-22.41L114.44-22.41L114.44-22.41Q119.88-22.41 119.88-16.95L119.88-16.95L119.88-16.55L119.88-16.55Q119.88-14.66 119.27-13.46L119.27-13.46L119.27-13.46Q118.67-12.27 117.41-11.69zM114.98-9.77L105.95-9.77L105.95-3.14L114.98-3.14L114.98-3.14Q116.25-3.14 116.81-3.73L116.81-3.73L116.81-3.73Q117.38-4.33 117.38-5.59L117.38-5.59L117.38-7.33L117.38-7.33Q117.38-8.61 116.81-9.19L116.81-9.19L116.81-9.19Q116.25-9.77 114.98-9.77L114.98-9.77zM114.34-19.27L105.95-19.27L105.95-12.89L114.56-12.89L114.56-12.89Q115.72-12.94 116.23-13.52L116.23-13.52L116.23-13.52Q116.73-14.11 116.73-15.33L116.73-15.33L116.73-16.80L116.73-16.80Q116.73-18.08 116.17-18.67L116.17-18.67L116.17-18.67Q115.61-19.27 114.34-19.27L114.34-19.27"
                        fill="#e50914" stroke="none" stroke-width="none"
                        transform="translate(-365.30999755859375,8.040976446242558)" style="fill: rgb(229, 9, 20);">
                    </path>
                </g>
                <g class="path"
                    style="transform: scale(0.85); transform-origin: -238.78px -3.48402px; animation: 1s linear -0.534286s infinite normal forwards running pulse-id;">
                    <path d="M125-23.05L128.06-23.05L128.06 0L125 0L125-23.05" fill="#e50914" stroke="none"
                        stroke-width="none" transform="translate(-365.30999755859375,8.040976446242558)"
                        style="fill: rgb(34, 31, 31);"></path>
                </g>
                <g class="path"
                    style="transform: scale(0.85); transform-origin: -224.925px -0.279023px; animation: 1s linear -0.518571s infinite normal forwards running pulse-id;">
                    <path
                        d="M147.58-13.56L147.58-3.08L147.58-3.08Q147.58-2.44 147.34-1.88L147.34-1.88L147.34-1.88Q147.09-1.31 146.68-0.90L146.68-0.90L146.68-0.90Q146.27-0.48 145.71-0.24L145.71-0.24L145.71-0.24Q145.16 0 144.52 0L144.52 0L136.25 0L136.25 0Q135.63 0 135.06-0.24L135.06-0.24L135.06-0.24Q134.50-0.48 134.09-0.90L134.09-0.90L134.09-0.90Q133.67-1.31 133.43-1.88L133.43-1.88L133.43-1.88Q133.19-2.44 133.19-3.08L133.19-3.08L133.19-13.56L133.19-13.56Q133.19-14.20 133.43-14.77L133.43-14.77L133.43-14.77Q133.67-15.33 134.09-15.74L134.09-15.74L134.09-15.74Q134.50-16.16 135.06-16.40L135.06-16.40L135.06-16.40Q135.63-16.64 136.25-16.64L136.25-16.64L144.52-16.64L144.52-16.64Q145.16-16.64 145.71-16.40L145.71-16.40L145.71-16.40Q146.27-16.16 146.68-15.74L146.68-15.74L146.68-15.74Q147.09-15.33 147.34-14.77L147.34-14.77L147.34-14.77Q147.58-14.20 147.58-13.56L147.58-13.56zM144.52-13.56L136.25-13.56L136.25-3.08L144.52-3.08L144.52-13.56"
                        fill="#e50914" stroke="none" stroke-width="none"
                        transform="translate(-365.30999755859375,8.040976446242558)" style="fill: rgb(34, 31, 31);">
                    </path>
                </g>
                <g class="path"
                    style="transform: scale(0.85); transform-origin: -205.57px -0.279023px; animation: 1s linear -0.502857s infinite normal forwards running pulse-id;">
                    <path
                        d="M163.70-13.56L155.77-13.56L155.77-3.08L163.70-3.08L163.70-5.89L166.78-5.89L166.78-3.08L166.78-3.08Q166.78-2.44 166.54-1.88L166.54-1.88L166.54-1.88Q166.30-1.31 165.88-0.90L165.88-0.90L165.88-0.90Q165.47-0.48 164.91-0.24L164.91-0.24L164.91-0.24Q164.34 0 163.70 0L163.70 0L155.77 0L155.77 0Q155.14 0 154.58-0.24L154.58-0.24L154.58-0.24Q154.02-0.48 153.60-0.90L153.60-0.90L153.60-0.90Q153.19-1.31 152.95-1.88L152.95-1.88L152.95-1.88Q152.70-2.44 152.70-3.08L152.70-3.08L152.70-13.56L152.70-13.56Q152.70-14.20 152.95-14.77L152.95-14.77L152.95-14.77Q153.19-15.33 153.60-15.74L153.60-15.74L153.60-15.74Q154.02-16.16 154.58-16.40L154.58-16.40L154.58-16.40Q155.14-16.64 155.77-16.64L155.77-16.64L163.70-16.64L163.70-16.64Q164.34-16.64 164.91-16.40L164.91-16.40L164.91-16.40Q165.47-16.16 165.88-15.74L165.88-15.74L165.88-15.74Q166.30-15.33 166.54-14.77L166.54-14.77L166.54-14.77Q166.78-14.20 166.78-13.56L166.78-13.56L166.78-10.75L163.70-10.75L163.70-13.56"
                        fill="#e50914" stroke="none" stroke-width="none"
                        transform="translate(-365.30999755859375,8.040976446242558)" style="fill: rgb(34, 31, 31);">
                    </path>
                </g>
                <g class="path"
                    style="transform: scale(0.85); transform-origin: -185.74px -3.48402px; animation: 1s linear -0.487143s infinite normal forwards running pulse-id;">
                    <path
                        d="M187.23 0L182.91 0L174.97-7.11L174.97 0L171.91 0L171.91-23.05L174.97-23.05L174.97-10.08L182.27-16.64L186.59-16.64L177.66-8.61L187.23 0"
                        fill="#e50914" stroke="none" stroke-width="none"
                        transform="translate(-365.30999755859375,8.040976446242558)" style="fill: rgb(34, 31, 31);">
                    </path>
                </g>
                <g class="path"
                    style="transform: scale(0.85); transform-origin: -168.8px -0.279023px; animation: 1s linear -0.471429s infinite normal forwards running pulse-id;">
                    <path
                        d="M200.47-13.56L192.53-13.56L192.53-3.08L200.47-3.08L200.47-5.89L203.55-5.89L203.55-3.08L203.55-3.08Q203.55-2.44 203.30-1.88L203.30-1.88L203.30-1.88Q203.06-1.31 202.65-0.90L202.65-0.90L202.65-0.90Q202.23-0.48 201.67-0.24L201.67-0.24L201.67-0.24Q201.11 0 200.47 0L200.47 0L192.53 0L192.53 0Q191.91 0 191.34-0.24L191.34-0.24L191.34-0.24Q190.78-0.48 190.37-0.90L190.37-0.90L190.37-0.90Q189.95-1.31 189.71-1.88L189.71-1.88L189.71-1.88Q189.47-2.44 189.47-3.08L189.47-3.08L189.47-13.56L189.47-13.56Q189.47-14.20 189.71-14.77L189.71-14.77L189.71-14.77Q189.95-15.33 190.37-15.74L190.37-15.74L190.37-15.74Q190.78-16.16 191.34-16.40L191.34-16.40L191.34-16.40Q191.91-16.64 192.53-16.64L192.53-16.64L200.47-16.64L200.47-16.64Q201.11-16.64 201.67-16.40L201.67-16.40L201.67-16.40Q202.23-16.16 202.65-15.74L202.65-15.74L202.65-15.74Q203.06-15.33 203.30-14.77L203.30-14.77L203.30-14.77Q203.55-14.20 203.55-13.56L203.55-13.56L203.55-10.75L200.47-10.75L200.47-13.56"
                        fill="#e50914" stroke="none" stroke-width="none"
                        transform="translate(-365.30999755859375,8.040976446242558)" style="fill: rgb(34, 31, 31);">
                    </path>
                </g>
                <g class="path"
                    style="transform: scale(0.85); transform-origin: -149.28px -3.48402px; animation: 1s linear -0.455714s infinite normal forwards running pulse-id;">
                    <path
                        d="M223.39-13.56L223.39 0L220.31 0L220.31-13.56L211.73-13.56L211.73 0L208.67 0L208.67-23.05L211.73-23.05L211.73-13.70L211.73-13.70Q211.77-14.31 212.02-14.85L212.02-14.85L212.02-14.85Q212.27-15.39 212.68-15.79L212.68-15.79L212.68-15.79Q213.09-16.19 213.64-16.41L213.64-16.41L213.64-16.41Q214.19-16.64 214.81-16.64L214.81-16.64L220.31-16.64L220.31-16.64Q220.95-16.64 221.52-16.40L221.52-16.40L221.52-16.40Q222.08-16.16 222.49-15.74L222.49-15.74L222.49-15.74Q222.91-15.33 223.15-14.77L223.15-14.77L223.15-14.77Q223.39-14.20 223.39-13.56L223.39-13.56"
                        fill="#e50914" stroke="none" stroke-width="none"
                        transform="translate(-365.30999755859375,8.040976446242558)" style="fill: rgb(34, 31, 31);">
                    </path>
                </g>
                <g class="path"
                    style="transform: scale(0.85); transform-origin: -129.755px -0.279023px; animation: 1s linear -0.44s infinite normal forwards running pulse-id;">
                    <path
                        d="M228.52-3.08L228.52-7.27L228.52-7.27Q228.52-7.91 228.76-8.46L228.76-8.46L228.76-8.46Q229-9.02 229.41-9.44L229.41-9.44L229.41-9.44Q229.83-9.86 230.39-10.10L230.39-10.10L230.39-10.10Q230.95-10.34 231.58-10.34L231.58-10.34L239.52-10.34L239.52-13.56L229.47-13.56L229.47-16.64L239.52-16.64L239.52-16.64Q240.16-16.64 240.72-16.40L240.72-16.40L240.72-16.40Q241.28-16.16 241.70-15.74L241.70-15.74L241.70-15.74Q242.11-15.33 242.35-14.77L242.35-14.77L242.35-14.77Q242.59-14.20 242.59-13.56L242.59-13.56L242.59 0L239.52 0L239.52-2.81L239.52-2.81Q239.47-2.23 239.20-1.72L239.20-1.72L239.20-1.72Q238.94-1.20 238.52-0.82L238.52-0.82L238.52-0.82Q238.11-0.44 237.58-0.22L237.58-0.22L237.58-0.22Q237.05 0 236.45 0L236.45 0L231.58 0L231.58 0Q230.95 0 230.39-0.24L230.39-0.24L230.39-0.24Q229.83-0.48 229.41-0.90L229.41-0.90L229.41-0.90Q229-1.31 228.76-1.88L228.76-1.88L228.76-1.88Q228.52-2.44 228.52-3.08L228.52-3.08zM231.58-7.27L231.58-3.08L239.52-3.08L239.52-7.27L231.58-7.27"
                        fill="#e50914" stroke="none" stroke-width="none"
                        transform="translate(-365.30999755859375,8.040976446242558)" style="fill: rgb(34, 31, 31);">
                    </path>
                </g>
                <g class="path"
                    style="transform: scale(0.85); transform-origin: -115.895px -0.279023px; animation: 1s linear -0.424286s infinite normal forwards running pulse-id;">
                    <path d="M247.88-16.64L250.95-16.64L250.95 0L247.88 0L247.88-16.64" fill="#e50914" stroke="none"
                        stroke-width="none" transform="translate(-365.30999755859375,8.040976446242558)"
                        style="fill: rgb(34, 31, 31);"></path>
                </g>
                <g class="path"
                    style="transform: scale(0.85); transform-origin: -115.895px -13.404px; animation: 1s linear -0.408571s infinite normal forwards running pulse-id;">
                    <path d="M247.72-19.84L247.72-23.05L251.11-23.05L251.11-19.84L247.72-19.84" fill="#e50914"
                        stroke="none" stroke-width="none" transform="translate(-365.30999755859375,8.040976446242558)"
                        style="fill: rgb(34, 31, 31);">
                    </path>
                </g>
                <g class="path"
                    style="transform: scale(0.85); transform-origin: -101.72px -0.279023px; animation: 1s linear -0.392857s infinite normal forwards running pulse-id;">
                    <path
                        d="M270.95-13.56L270.95 0L267.88 0L267.88-13.56L259.30-13.56L259.30 0L256.23 0L256.23-16.64L259.30-16.64L259.30-13.70L259.30-13.70Q259.33-14.31 259.58-14.85L259.58-14.85L259.58-14.85Q259.83-15.39 260.24-15.79L260.24-15.79L260.24-15.79Q260.66-16.19 261.20-16.41L261.20-16.41L261.20-16.41Q261.75-16.64 262.38-16.64L262.38-16.64L267.88-16.64L267.88-16.64Q268.52-16.64 269.08-16.40L269.08-16.40L269.08-16.40Q269.64-16.16 270.05-15.74L270.05-15.74L270.05-15.74Q270.47-15.33 270.71-14.77L270.71-14.77L270.71-14.77Q270.95-14.20 270.95-13.56L270.95-13.56"
                        fill="#e50914" stroke="none" stroke-width="none"
                        transform="translate(-365.30999755859375,8.040976446242558)" style="fill: rgb(34, 31, 31);">
                    </path>
                </g>
                <g class="path"
                    style="transform: scale(0.85); transform-origin: -70.365px -3.16402px; animation: 1s linear -0.377143s infinite normal forwards running pulse-id;">
                    <path
                        d="M303.69-16.95L303.69-14.41L303.69-14.41Q303.69-9.72 299.69-9.06L299.69-9.06L303.91 0L300.36 0L296.20-8.95L289.19-8.95L289.19 0L285.98 0L285.98-22.41L298.25-22.41L298.25-22.41Q303.69-22.41 303.69-16.95L303.69-16.95zM289.19-19.20L289.19-12.16L298.08-12.16L298.08-12.16Q299.36-12.16 299.92-12.72L299.92-12.72L299.92-12.72Q300.48-13.28 300.48-14.56L300.48-14.56L300.48-16.80L300.48-16.80Q300.48-18.08 299.92-18.64L299.92-18.64L299.92-18.64Q299.36-19.20 298.08-19.20L298.08-19.20L289.19-19.20"
                        fill="#e50914" stroke="none" stroke-width="none"
                        transform="translate(-365.30999755859375,8.040976446242558)" style="fill: rgb(229, 9, 20);">
                    </path>
                </g>
                <g class="path"
                    style="transform: scale(0.85); transform-origin: -49.55px -0.279023px; animation: 1s linear -0.361429s infinite normal forwards running pulse-id;">
                    <path
                        d="M322.80-13.56L322.80-6.75L311.78-6.75L311.78-3.08L322.80-3.08L322.80 0L311.78 0L311.78 0Q311.16 0 310.59-0.24L310.59-0.24L310.59-0.24Q310.03-0.48 309.62-0.90L309.62-0.90L309.62-0.90Q309.20-1.31 308.96-1.88L308.96-1.88L308.96-1.88Q308.72-2.44 308.72-3.08L308.72-3.08L308.72-13.56L308.72-13.56Q308.72-14.20 308.96-14.77L308.96-14.77L308.96-14.77Q309.20-15.33 309.62-15.74L309.62-15.74L309.62-15.74Q310.03-16.16 310.59-16.40L310.59-16.40L310.59-16.40Q311.16-16.64 311.78-16.64L311.78-16.64L319.72-16.64L319.72-16.64Q320.36-16.64 320.92-16.40L320.92-16.40L320.92-16.40Q321.48-16.16 321.90-15.74L321.90-15.74L321.90-15.74Q322.31-15.33 322.55-14.77L322.55-14.77L322.55-14.77Q322.80-14.20 322.80-13.56L322.80-13.56zM319.72-13.56L311.78-13.56L311.78-9.83L319.72-9.83L319.72-13.56"
                        fill="#e50914" stroke="none" stroke-width="none"
                        transform="translate(-365.30999755859375,8.040976446242558)" style="fill: rgb(34, 31, 31);">
                    </path>
                </g>
                <g class="path"
                    style="transform: scale(0.85); transform-origin: -30.99px -0.279023px; animation: 1s linear -0.345714s infinite normal forwards running pulse-id;">
                    <path
                        d="M327.59-3.08L337.97-3.08L337.97-6.94L330.67-6.94L330.67-6.94Q330.03-6.94 329.47-7.18L329.47-7.18L329.47-7.18Q328.91-7.42 328.49-7.84L328.49-7.84L328.49-7.84Q328.08-8.25 327.84-8.81L327.84-8.81L327.84-8.81Q327.59-9.38 327.59-10.02L327.59-10.02L327.59-13.56L327.59-13.56Q327.59-14.20 327.84-14.77L327.84-14.77L327.84-14.77Q328.08-15.33 328.49-15.74L328.49-15.74L328.49-15.74Q328.91-16.16 329.47-16.40L329.47-16.40L329.47-16.40Q330.03-16.64 330.67-16.64L330.67-16.64L340.41-16.64L340.41-13.56L330.67-13.56L330.67-10.02L337.97-10.02L337.97-10.02Q338.61-10.02 339.16-9.77L339.16-9.77L339.16-9.77Q339.72-9.53 340.14-9.12L340.14-9.12L340.14-9.12Q340.56-8.70 340.80-8.14L340.80-8.14L340.80-8.14Q341.05-7.58 341.05-6.94L341.05-6.94L341.05-3.08L341.05-3.08Q341.05-2.44 340.80-1.88L340.80-1.88L340.80-1.88Q340.56-1.31 340.14-0.90L340.14-0.90L340.14-0.90Q339.72-0.48 339.16-0.24L339.16-0.24L339.16-0.24Q338.61 0 337.97 0L337.97 0L327.59 0L327.59-3.08"
                        fill="#e50914" stroke="none" stroke-width="none"
                        transform="translate(-365.30999755859375,8.040976446242558)" style="fill: rgb(34, 31, 31);">
                    </path>
                </g>
                <g class="path"
                    style="transform: scale(0.85); transform-origin: -12.43px -0.279023px; animation: 1s linear -0.33s infinite normal forwards running pulse-id;">
                    <path
                        d="M359.92-13.56L359.92-6.75L348.91-6.75L348.91-3.08L359.92-3.08L359.92 0L348.91 0L348.91 0Q348.28 0 347.72-0.24L347.72-0.24L347.72-0.24Q347.16-0.48 346.74-0.90L346.74-0.90L346.74-0.90Q346.33-1.31 346.09-1.88L346.09-1.88L346.09-1.88Q345.84-2.44 345.84-3.08L345.84-3.08L345.84-13.56L345.84-13.56Q345.84-14.20 346.09-14.77L346.09-14.77L346.09-14.77Q346.33-15.33 346.74-15.74L346.74-15.74L346.74-15.74Q347.16-16.16 347.72-16.40L347.72-16.40L347.72-16.40Q348.28-16.64 348.91-16.64L348.91-16.64L356.84-16.64L356.84-16.64Q357.48-16.64 358.05-16.40L358.05-16.40L358.05-16.40Q358.61-16.16 359.02-15.74L359.02-15.74L359.02-15.74Q359.44-15.33 359.68-14.77L359.68-14.77L359.68-14.77Q359.92-14.20 359.92-13.56L359.92-13.56zM356.84-13.56L348.91-13.56L348.91-9.83L356.84-9.83L356.84-13.56"
                        fill="#e50914" stroke="none" stroke-width="none"
                        transform="translate(-365.30999755859375,8.040976446242558)" style="fill: rgb(34, 31, 31);">
                    </path>
                </g>
                <g class="path"
                    style="transform: scale(0.85); transform-origin: 6.78px -0.279023px; animation: 1s linear -0.314286s infinite normal forwards running pulse-id;">
                    <path
                        d="M365.05-3.08L365.05-7.27L365.05-7.27Q365.05-7.91 365.29-8.46L365.29-8.46L365.29-8.46Q365.53-9.02 365.95-9.44L365.95-9.44L365.95-9.44Q366.36-9.86 366.92-10.10L366.92-10.10L366.92-10.10Q367.48-10.34 368.11-10.34L368.11-10.34L376.05-10.34L376.05-13.56L366-13.56L366-16.64L376.05-16.64L376.05-16.64Q376.69-16.64 377.25-16.40L377.25-16.40L377.25-16.40Q377.81-16.16 378.23-15.74L378.23-15.74L378.23-15.74Q378.64-15.33 378.88-14.77L378.88-14.77L378.88-14.77Q379.13-14.20 379.13-13.56L379.13-13.56L379.13 0L376.05 0L376.05-2.81L376.05-2.81Q376-2.23 375.73-1.72L375.73-1.72L375.73-1.72Q375.47-1.20 375.05-0.82L375.05-0.82L375.05-0.82Q374.64-0.44 374.11-0.22L374.11-0.22L374.11-0.22Q373.58 0 372.98 0L372.98 0L368.11 0L368.11 0Q367.48 0 366.92-0.24L366.92-0.24L366.92-0.24Q366.36-0.48 365.95-0.90L365.95-0.90L365.95-0.90Q365.53-1.31 365.29-1.88L365.29-1.88L365.29-1.88Q365.05-2.44 365.05-3.08L365.05-3.08zM368.11-7.27L368.11-3.08L376.05-3.08L376.05-7.27L368.11-7.27"
                        fill="#e50914" stroke="none" stroke-width="none"
                        transform="translate(-365.30999755859375,8.040976446242558)" style="fill: rgb(34, 31, 31);">
                    </path>
                </g>
                <g class="path"
                    style="transform: scale(0.85); transform-origin: 25.18px -0.279023px; animation: 1s linear -0.298571s infinite normal forwards running pulse-id;">
                    <path
                        d="M393.66-13.56L387.31-13.56L387.31 0L384.25 0L384.25-16.64L387.31-16.64L387.31-13.70L387.31-13.70Q387.34-14.31 387.59-14.85L387.59-14.85L387.59-14.85Q387.84-15.39 388.26-15.79L388.26-15.79L388.26-15.79Q388.67-16.19 389.22-16.41L389.22-16.41L389.22-16.41Q389.77-16.64 390.39-16.64L390.39-16.64L393.66-16.64L393.66-16.64Q394.30-16.64 394.85-16.40L394.85-16.40L394.85-16.40Q395.41-16.16 395.83-15.74L395.83-15.74L395.83-15.74Q396.25-15.33 396.49-14.77L396.49-14.77L396.49-14.77Q396.73-14.20 396.73-13.56L396.73-13.56L396.73-10.75L393.66-10.75L393.66-13.56"
                        fill="#e50914" stroke="none" stroke-width="none"
                        transform="translate(-365.30999755859375,8.040976446242558)" style="fill: rgb(34, 31, 31);">
                    </path>
                </g>
                <g class="path"
                    style="transform: scale(0.85); transform-origin: 42.29px -0.279023px; animation: 1s linear -0.282857s infinite normal forwards running pulse-id;">
                    <path
                        d="M411.56-13.56L403.63-13.56L403.63-3.08L411.56-3.08L411.56-5.89L414.64-5.89L414.64-3.08L414.64-3.08Q414.64-2.44 414.40-1.88L414.40-1.88L414.40-1.88Q414.16-1.31 413.74-0.90L413.74-0.90L413.74-0.90Q413.33-0.48 412.77-0.24L412.77-0.24L412.77-0.24Q412.20 0 411.56 0L411.56 0L403.63 0L403.63 0Q403 0 402.44-0.24L402.44-0.24L402.44-0.24Q401.88-0.48 401.46-0.90L401.46-0.90L401.46-0.90Q401.05-1.31 400.80-1.88L400.80-1.88L400.80-1.88Q400.56-2.44 400.56-3.08L400.56-3.08L400.56-13.56L400.56-13.56Q400.56-14.20 400.80-14.77L400.80-14.77L400.80-14.77Q401.05-15.33 401.46-15.74L401.46-15.74L401.46-15.74Q401.88-16.16 402.44-16.40L402.44-16.40L402.44-16.40Q403-16.64 403.63-16.64L403.63-16.64L411.56-16.64L411.56-16.64Q412.20-16.64 412.77-16.40L412.77-16.40L412.77-16.40Q413.33-16.16 413.74-15.74L413.74-15.74L413.74-15.74Q414.16-15.33 414.40-14.77L414.40-14.77L414.40-14.77Q414.64-14.20 414.64-13.56L414.64-13.56L414.64-10.75L411.56-10.75L411.56-13.56"
                        fill="#e50914" stroke="none" stroke-width="none"
                        transform="translate(-365.30999755859375,8.040976446242558)" style="fill: rgb(34, 31, 31);">
                    </path>
                </g>
                <g class="path"
                    style="transform: scale(0.85); transform-origin: 61.815px -3.48402px; animation: 1s linear -0.267143s infinite normal forwards running pulse-id;">
                    <path
                        d="M434.48-13.56L434.48 0L431.41 0L431.41-13.56L422.83-13.56L422.83 0L419.77 0L419.77-23.05L422.83-23.05L422.83-13.70L422.83-13.70Q422.86-14.31 423.11-14.85L423.11-14.85L423.11-14.85Q423.36-15.39 423.77-15.79L423.77-15.79L423.77-15.79Q424.19-16.19 424.73-16.41L424.73-16.41L424.73-16.41Q425.28-16.64 425.91-16.64L425.91-16.64L431.41-16.64L431.41-16.64Q432.05-16.64 432.61-16.40L432.61-16.40L432.61-16.40Q433.17-16.16 433.59-15.74L433.59-15.74L433.59-15.74Q434-15.33 434.24-14.77L434.24-14.77L434.24-14.77Q434.48-14.20 434.48-13.56L434.48-13.56"
                        fill="#e50914" stroke="none" stroke-width="none"
                        transform="translate(-365.30999755859375,8.040976446242558)" style="fill: rgb(34, 31, 31);">
                    </path>
                </g>
                <g class="path"
                    style="transform: scale(0.85); transform-origin: 93.81px -3.16402px; animation: 1s linear -0.251429s infinite normal forwards running pulse-id;">
                    <path
                        d="M468.72-19.20L468.72-3.20L468.72-3.20Q468.72-2.55 468.47-1.96L468.47-1.96L468.47-1.96Q468.22-1.38 467.78-0.94L467.78-0.94L467.78-0.94Q467.34-0.50 466.76-0.25L466.76-0.25L466.76-0.25Q466.17 0 465.52 0L465.52 0L452.72 0L452.72 0Q452.06 0 451.48-0.25L451.48-0.25L451.48-0.25Q450.89-0.50 450.45-0.94L450.45-0.94L450.45-0.94Q450.02-1.38 449.77-1.96L449.77-1.96L449.77-1.96Q449.52-2.55 449.52-3.20L449.52-3.20L449.52-19.20L449.52-19.20Q449.52-19.86 449.77-20.45L449.77-20.45L449.77-20.45Q450.02-21.03 450.45-21.46L450.45-21.46L450.45-21.46Q450.89-21.89 451.48-22.15L451.48-22.15L451.48-22.15Q452.06-22.41 452.72-22.41L452.72-22.41L465.52-22.41L465.52-22.41Q466.17-22.41 466.76-22.15L466.76-22.15L466.76-22.15Q467.34-21.89 467.78-21.46L467.78-21.46L467.78-21.46Q468.22-21.03 468.47-20.45L468.47-20.45L468.47-20.45Q468.72-19.86 468.72-19.20L468.72-19.20zM465.52-19.20L452.72-19.20L452.72-3.20L465.52-3.20L465.52-19.20"
                        fill="#e50914" stroke="none" stroke-width="none"
                        transform="translate(-365.30999755859375,8.040976446242558)" style="fill: rgb(229, 9, 20);">
                    </path>
                </g>
                <g class="path"
                    style="transform: scale(0.85); transform-origin: 114.185px -3.48402px; animation: 1s linear -0.235714s infinite normal forwards running pulse-id;">
                    <path
                        d="M485.80-19.97L480.33-19.97L480.33-16.64L485.80-16.64L485.80-13.56L480.33-13.56L480.33 0L477.25 0L477.25-13.56L473.19-13.56L473.19-16.64L477.25-16.64L477.25-19.97L477.25-19.97Q477.25-20.61 477.49-21.16L477.49-21.16L477.49-21.16Q477.73-21.72 478.16-22.14L478.16-22.14L478.16-22.14Q478.58-22.56 479.14-22.80L479.14-22.80L479.14-22.80Q479.70-23.05 480.33-23.05L480.33-23.05L485.80-23.05L485.80-19.97"
                        fill="#e50914" stroke="none" stroke-width="none"
                        transform="translate(-365.30999755859375,8.040976446242558)" style="fill: rgb(34, 31, 31);">
                    </path>
                </g>
                <g class="path"
                    style="transform: scale(0.85); transform-origin: 129.995px -3.48402px; animation: 1s linear -0.22s infinite normal forwards running pulse-id;">
                    <path
                        d="M501.61-19.97L496.14-19.97L496.14-16.64L501.61-16.64L501.61-13.56L496.14-13.56L496.14 0L493.06 0L493.06-13.56L489-13.56L489-16.64L493.06-16.64L493.06-19.97L493.06-19.97Q493.06-20.61 493.30-21.16L493.30-21.16L493.30-21.16Q493.55-21.72 493.97-22.14L493.97-22.14L493.97-22.14Q494.39-22.56 494.95-22.80L494.95-22.80L494.95-22.80Q495.52-23.05 496.14-23.05L496.14-23.05L501.61-23.05L501.61-19.97"
                        fill="#e50914" stroke="none" stroke-width="none"
                        transform="translate(-365.30999755859375,8.040976446242558)" style="fill: rgb(34, 31, 31);">
                    </path>
                </g>
                <g class="path"
                    style="transform: scale(0.85); transform-origin: 142.17px -0.279023px; animation: 1s linear -0.204286s infinite normal forwards running pulse-id;">
                    <path d="M505.94-16.64L509.02-16.64L509.02 0L505.94 0L505.94-16.64" fill="#e50914" stroke="none"
                        stroke-width="none" transform="translate(-365.30999755859375,8.040976446242558)"
                        style="fill: rgb(34, 31, 31);"></path>
                </g>
                <g class="path"
                    style="transform: scale(0.85); transform-origin: 142.165px -13.404px; animation: 1s linear -0.188571s infinite normal forwards running pulse-id;">
                    <path d="M505.78-19.84L505.78-23.05L509.17-23.05L509.17-19.84L505.78-19.84" fill="#e50914"
                        stroke="none" stroke-width="none" transform="translate(-365.30999755859375,8.040976446242558)"
                        style="fill: rgb(34, 31, 31);">
                    </path>
                </g>
                <g class="path"
                    style="transform: scale(0.85); transform-origin: 156.03px -0.279023px; animation: 1s linear -0.172857s infinite normal forwards running pulse-id;">
                    <path
                        d="M525.30-13.56L517.36-13.56L517.36-3.08L525.30-3.08L525.30-5.89L528.38-5.89L528.38-3.08L528.38-3.08Q528.38-2.44 528.13-1.88L528.13-1.88L528.13-1.88Q527.89-1.31 527.48-0.90L527.48-0.90L527.48-0.90Q527.06-0.48 526.50-0.24L526.50-0.24L526.50-0.24Q525.94 0 525.30 0L525.30 0L517.36 0L517.36 0Q516.73 0 516.17-0.24L516.17-0.24L516.17-0.24Q515.61-0.48 515.20-0.90L515.20-0.90L515.20-0.90Q514.78-1.31 514.54-1.88L514.54-1.88L514.54-1.88Q514.30-2.44 514.30-3.08L514.30-3.08L514.30-13.56L514.30-13.56Q514.30-14.20 514.54-14.77L514.54-14.77L514.54-14.77Q514.78-15.33 515.20-15.74L515.20-15.74L515.20-15.74Q515.61-16.16 516.17-16.40L516.17-16.40L516.17-16.40Q516.73-16.64 517.36-16.64L517.36-16.64L525.30-16.64L525.30-16.64Q525.94-16.64 526.50-16.40L526.50-16.40L526.50-16.40Q527.06-16.16 527.48-15.74L527.48-15.74L527.48-15.74Q527.89-15.33 528.13-14.77L528.13-14.77L528.13-14.77Q528.38-14.20 528.38-13.56L528.38-13.56L528.38-10.75L525.30-10.75L525.30-13.56"
                        fill="#e50914" stroke="none" stroke-width="none"
                        transform="translate(-365.30999755859375,8.040976446242558)" style="fill: rgb(34, 31, 31);">
                    </path>
                </g>
                <g class="path"
                    style="transform: scale(0.85); transform-origin: 175.23px -0.279023px; animation: 1s linear -0.157143s infinite normal forwards running pulse-id;">
                    <path
                        d="M547.58-13.56L547.58-6.75L536.56-6.75L536.56-3.08L547.58-3.08L547.58 0L536.56 0L536.56 0Q535.94 0 535.38-0.24L535.38-0.24L535.38-0.24Q534.81-0.48 534.40-0.90L534.40-0.90L534.40-0.90Q533.98-1.31 533.74-1.88L533.74-1.88L533.74-1.88Q533.50-2.44 533.50-3.08L533.50-3.08L533.50-13.56L533.50-13.56Q533.50-14.20 533.74-14.77L533.74-14.77L533.74-14.77Q533.98-15.33 534.40-15.74L534.40-15.74L534.40-15.74Q534.81-16.16 535.38-16.40L535.38-16.40L535.38-16.40Q535.94-16.64 536.56-16.64L536.56-16.64L544.50-16.64L544.50-16.64Q545.14-16.64 545.70-16.40L545.70-16.40L545.70-16.40Q546.27-16.16 546.68-15.74L546.68-15.74L546.68-15.74Q547.09-15.33 547.34-14.77L547.34-14.77L547.34-14.77Q547.58-14.20 547.58-13.56L547.58-13.56zM544.50-13.56L536.56-13.56L536.56-9.83L544.50-9.83L544.50-13.56"
                        fill="#e50914" stroke="none" stroke-width="none"
                        transform="translate(-365.30999755859375,8.040976446242558)" style="fill: rgb(34, 31, 31);">
                    </path>
                </g>
                <g class="path"
                    style="transform: scale(0.85); transform-origin: 204.185px -0.279023px; animation: 1s linear -0.141429s infinite normal forwards running pulse-id;">
                    <path
                        d="M576.69-13.56L576.69-3.08L576.69-3.08Q576.69-2.44 576.45-1.88L576.45-1.88L576.45-1.88Q576.20-1.31 575.79-0.90L575.79-0.90L575.79-0.90Q575.38-0.48 574.82-0.24L574.82-0.24L574.82-0.24Q574.27 0 573.63 0L573.63 0L565.36 0L565.36 0Q564.73 0 564.17-0.24L564.17-0.24L564.17-0.24Q563.61-0.48 563.20-0.90L563.20-0.90L563.20-0.90Q562.78-1.31 562.54-1.88L562.54-1.88L562.54-1.88Q562.30-2.44 562.30-3.08L562.30-3.08L562.30-13.56L562.30-13.56Q562.30-14.20 562.54-14.77L562.54-14.77L562.54-14.77Q562.78-15.33 563.20-15.74L563.20-15.74L563.20-15.74Q563.61-16.16 564.17-16.40L564.17-16.40L564.17-16.40Q564.73-16.64 565.36-16.64L565.36-16.64L573.63-16.64L573.63-16.64Q574.27-16.64 574.82-16.40L574.82-16.40L574.82-16.40Q575.38-16.16 575.79-15.74L575.79-15.74L575.79-15.74Q576.20-15.33 576.45-14.77L576.45-14.77L576.45-14.77Q576.69-14.20 576.69-13.56L576.69-13.56zM573.63-13.56L565.36-13.56L565.36-3.08L573.63-3.08L573.63-13.56"
                        fill="#e50914" stroke="none" stroke-width="none"
                        transform="translate(-365.30999755859375,8.040976446242558)" style="fill: rgb(229, 9, 20);">
                    </path>
                </g>
                <g class="path"
                    style="transform: scale(0.85); transform-origin: 221.835px -3.48402px; animation: 1s linear -0.125714s infinite normal forwards running pulse-id;">
                    <path
                        d="M593.45-19.97L587.98-19.97L587.98-16.64L593.45-16.64L593.45-13.56L587.98-13.56L587.98 0L584.91 0L584.91-13.56L580.84-13.56L580.84-16.64L584.91-16.64L584.91-19.97L584.91-19.97Q584.91-20.61 585.15-21.16L585.15-21.16L585.15-21.16Q585.39-21.72 585.81-22.14L585.81-22.14L585.81-22.14Q586.23-22.56 586.80-22.80L586.80-22.80L586.80-22.80Q587.36-23.05 587.98-23.05L587.98-23.05L593.45-23.05L593.45-19.97"
                        fill="#e50914" stroke="none" stroke-width="none"
                        transform="translate(-365.30999755859375,8.040976446242558)" style="fill: rgb(34, 31, 31);">
                    </path>
                </g>
                <g class="path"
                    style="transform: scale(0.85); transform-origin: 251.82px -3.16402px; animation: 1s linear -0.11s infinite normal forwards running pulse-id;">
                    <path
                        d="M626.73-19.20L626.73-3.20L626.73-3.20Q626.73-2.55 626.48-1.96L626.48-1.96L626.48-1.96Q626.23-1.38 625.80-0.94L625.80-0.94L625.80-0.94Q625.36-0.50 624.77-0.25L624.77-0.25L624.77-0.25Q624.19 0 623.53 0L623.53 0L610.73 0L610.73 0Q610.08 0 609.49-0.25L609.49-0.25L609.49-0.25Q608.91-0.50 608.47-0.94L608.47-0.94L608.47-0.94Q608.03-1.38 607.78-1.96L607.78-1.96L607.78-1.96Q607.53-2.55 607.53-3.20L607.53-3.20L607.53-19.20L607.53-19.20Q607.53-19.86 607.78-20.45L607.78-20.45L607.78-20.45Q608.03-21.03 608.47-21.46L608.47-21.46L608.47-21.46Q608.91-21.89 609.49-22.15L609.49-22.15L609.49-22.15Q610.08-22.41 610.73-22.41L610.73-22.41L623.53-22.41L623.53-22.41Q624.19-22.41 624.77-22.15L624.77-22.15L624.77-22.15Q625.36-21.89 625.80-21.46L625.80-21.46L625.80-21.46Q626.23-21.03 626.48-20.45L626.48-20.45L626.48-20.45Q626.73-19.86 626.73-19.20L626.73-19.20zM623.53-19.20L610.73-19.20L610.73-3.20L623.53-3.20L623.53-19.20"
                        fill="#e50914" stroke="none" stroke-width="none"
                        transform="translate(-365.30999755859375,8.040976446242558)" style="fill: rgb(229, 9, 20);">
                    </path>
                </g>
                <g class="path"
                    style="transform: scale(0.85); transform-origin: 274.22px -0.279023px; animation: 1s linear -0.0942857s infinite normal forwards running pulse-id;">
                    <path
                        d="M646.89-13.56L646.89 0L643.81 0L643.81-13.56L635.23-13.56L635.23 0L632.17 0L632.17-16.64L635.23-16.64L635.23-13.70L635.23-13.70Q635.27-14.31 635.52-14.85L635.52-14.85L635.52-14.85Q635.77-15.39 636.18-15.79L636.18-15.79L636.18-15.79Q636.59-16.19 637.14-16.41L637.14-16.41L637.14-16.41Q637.69-16.64 638.31-16.64L638.31-16.64L643.81-16.64L643.81-16.64Q644.45-16.64 645.02-16.40L645.02-16.40L645.02-16.40Q645.58-16.16 645.99-15.74L645.99-15.74L645.99-15.74Q646.41-15.33 646.65-14.77L646.65-14.77L646.65-14.77Q646.89-14.20 646.89-13.56L646.89-13.56"
                        fill="#e50914" stroke="none" stroke-width="none"
                        transform="translate(-365.30999755859375,8.040976446242558)" style="fill: rgb(34, 31, 31);">
                    </path>
                </g>
                <g class="path"
                    style="transform: scale(0.85); transform-origin: 293.745px -0.279023px; animation: 1s linear -0.0785714s infinite normal forwards running pulse-id;">
                    <path
                        d="M663.02-13.56L655.08-13.56L655.08-3.08L663.02-3.08L663.02-5.89L666.09-5.89L666.09-3.08L666.09-3.08Q666.09-2.44 665.85-1.88L665.85-1.88L665.85-1.88Q665.61-1.31 665.20-0.90L665.20-0.90L665.20-0.90Q664.78-0.48 664.22-0.24L664.22-0.24L664.22-0.24Q663.66 0 663.02 0L663.02 0L655.08 0L655.08 0Q654.45 0 653.89-0.24L653.89-0.24L653.89-0.24Q653.33-0.48 652.91-0.90L652.91-0.90L652.91-0.90Q652.50-1.31 652.26-1.88L652.26-1.88L652.26-1.88Q652.02-2.44 652.02-3.08L652.02-3.08L652.02-13.56L652.02-13.56Q652.02-14.20 652.26-14.77L652.26-14.77L652.26-14.77Q652.50-15.33 652.91-15.74L652.91-15.74L652.91-15.74Q653.33-16.16 653.89-16.40L653.89-16.40L653.89-16.40Q654.45-16.64 655.08-16.64L655.08-16.64L663.02-16.64L663.02-16.64Q663.66-16.64 664.22-16.40L664.22-16.40L664.22-16.40Q664.78-16.16 665.20-15.74L665.20-15.74L665.20-15.74Q665.61-15.33 665.85-14.77L665.85-14.77L665.85-14.77Q666.09-14.20 666.09-13.56L666.09-13.56L666.09-10.75L663.02-10.75L663.02-13.56"
                        fill="#e50914" stroke="none" stroke-width="none"
                        transform="translate(-365.30999755859375,8.040976446242558)" style="fill: rgb(34, 31, 31);">
                    </path>
                </g>
                <g class="path"
                    style="transform: scale(0.85); transform-origin: 313.27px -3.48402px; animation: 1s linear -0.0628571s infinite normal forwards running pulse-id;">
                    <path
                        d="M685.94-13.56L685.94 0L682.86 0L682.86-13.56L674.28-13.56L674.28 0L671.22 0L671.22-23.05L674.28-23.05L674.28-13.70L674.28-13.70Q674.31-14.31 674.56-14.85L674.56-14.85L674.56-14.85Q674.81-15.39 675.23-15.79L675.23-15.79L675.23-15.79Q675.64-16.19 676.19-16.41L676.19-16.41L676.19-16.41Q676.73-16.64 677.36-16.64L677.36-16.64L682.86-16.64L682.86-16.64Q683.50-16.64 684.06-16.40L684.06-16.40L684.06-16.40Q684.63-16.16 685.04-15.74L685.04-15.74L685.04-15.74Q685.45-15.33 685.70-14.77L685.70-14.77L685.70-14.77Q685.94-14.20 685.94-13.56L685.94-13.56"
                        fill="#e50914" stroke="none" stroke-width="none"
                        transform="translate(-365.30999755859375,8.040976446242558)" style="fill: rgb(34, 31, 31);">
                    </path>
                </g>
                <g class="path"
                    style="transform: scale(0.85); transform-origin: 332.79px -0.279023px; animation: 1s linear -0.0471429s infinite normal forwards running pulse-id;">
                    <path
                        d="M691.06-3.08L691.06-7.27L691.06-7.27Q691.06-7.91 691.30-8.46L691.30-8.46L691.30-8.46Q691.55-9.02 691.96-9.44L691.96-9.44L691.96-9.44Q692.38-9.86 692.94-10.10L692.94-10.10L692.94-10.10Q693.50-10.34 694.13-10.34L694.13-10.34L702.06-10.34L702.06-13.56L692.02-13.56L692.02-16.64L702.06-16.64L702.06-16.64Q702.70-16.64 703.27-16.40L703.27-16.40L703.27-16.40Q703.83-16.16 704.24-15.74L704.24-15.74L704.24-15.74Q704.66-15.33 704.90-14.77L704.90-14.77L704.90-14.77Q705.14-14.20 705.14-13.56L705.14-13.56L705.14 0L702.06 0L702.06-2.81L702.06-2.81Q702.02-2.23 701.75-1.72L701.75-1.72L701.75-1.72Q701.48-1.20 701.07-0.82L701.07-0.82L701.07-0.82Q700.66-0.44 700.13-0.22L700.13-0.22L700.13-0.22Q699.59 0 699 0L699 0L694.13 0L694.13 0Q693.50 0 692.94-0.24L692.94-0.24L692.94-0.24Q692.38-0.48 691.96-0.90L691.96-0.90L691.96-0.90Q691.55-1.31 691.30-1.88L691.30-1.88L691.30-1.88Q691.06-2.44 691.06-3.08L691.06-3.08zM694.13-7.27L694.13-3.08L702.06-3.08L702.06-7.27L694.13-7.27"
                        fill="#e50914" stroke="none" stroke-width="none"
                        transform="translate(-365.30999755859375,8.040976446242558)" style="fill: rgb(34, 31, 31);">
                    </path>
                </g>
                <g class="path"
                    style="transform: scale(0.85); transform-origin: 346.65px -0.279023px; animation: 1s linear -0.0314286s infinite normal forwards running pulse-id;">
                    <path d="M710.42-16.64L713.50-16.64L713.50 0L710.42 0L710.42-16.64" fill="#e50914" stroke="none"
                        stroke-width="none" transform="translate(-365.30999755859375,8.040976446242558)"
                        style="fill: rgb(34, 31, 31);"></path>
                </g>
                <g class="path"
                    style="transform: scale(0.85); transform-origin: 346.655px -13.404px; animation: 1s linear -0.0157143s infinite normal forwards running pulse-id;">
                    <path d="M710.27-19.84L710.27-23.05L713.66-23.05L713.66-19.84L710.27-19.84" fill="#e50914"
                        stroke="none" stroke-width="none" transform="translate(-365.30999755859375,8.040976446242558)"
                        style="fill: rgb(34, 31, 31);">
                    </path>
                </g>
                <g class="path"
                    style="transform: scale(0.85); transform-origin: 360.83px -0.279023px; animation: 1s linear 0s infinite normal forwards running pulse-id;">
                    <path
                        d="M733.50-13.56L733.50 0L730.42 0L730.42-13.56L721.84-13.56L721.84 0L718.78 0L718.78-16.64L721.84-16.64L721.84-13.70L721.84-13.70Q721.88-14.31 722.13-14.85L722.13-14.85L722.13-14.85Q722.38-15.39 722.79-15.79L722.79-15.79L722.79-15.79Q723.20-16.19 723.75-16.41L723.75-16.41L723.75-16.41Q724.30-16.64 724.92-16.64L724.92-16.64L730.42-16.64L730.42-16.64Q731.06-16.64 731.63-16.40L731.63-16.40L731.63-16.40Q732.19-16.16 732.60-15.74L732.60-15.74L732.60-15.74Q733.02-15.33 733.26-14.77L733.26-14.77L733.26-14.77Q733.50-14.20 733.50-13.56L733.50-13.56"
                        fill="#e50914" stroke="none" stroke-width="none"
                        transform="translate(-365.30999755859375,8.040976446242558)" style="fill: rgb(34, 31, 31);">
                    </path>
                </g>
            </g>
        </g>
    </g>
</svg>
